<?xml version="1.0" standalone="no"?>
<!DOCTYPE svg PUBLIC "-//W3C//DTD SVG 20010904//EN"
 "http://www.w3.org/TR/2001/REC-SVG-20010904/DTD/svg10.dtd">
<svg version="1.0" xmlns="http://www.w3.org/2000/svg"
 width="700.000000pt" height="700.000000pt" viewBox="0 0 700.000000 700.000000"
 preserveAspectRatio="xMidYMid meet">
<metadata>
Created by potrace 1.11, written by Peter Selinger 2001-2013
</metadata>
<g transform="translate(0.000000,700.000000) scale(0.100000,-0.100000)"
fill="#000000" stroke="none">
<path d="M0 3470 l0 -3210 162 -130 163 -130 3175 0 3175 0 163 130 162 130 0
3210 0 3210 -3500 0 -3500 0 0 -3210z m2747 2119 c38 -14 83 -57 99 -96 11
-26 14 -112 14 -410 0 -362 -1 -378 -21 -420 -39 -82 -147 -117 -228 -75 -19
9 -48 34 -65 55 l-31 39 -3 381 c-2 328 -1 388 13 423 34 89 135 136 222 103z
m851 -22 c77 -50 77 -53 77 -482 0 -426 0 -427 -71 -481 -33 -25 -46 -29 -104
-29 -58 0 -71 4 -104 29 -70 53 -71 59 -74 450 -3 363 2 425 38 476 50 71 161
88 238 37z m791 13 c47 -23 77 -60 92 -109 7 -23 9 -167 7 -413 l-3 -376 -31
-39 c-17 -21 -46 -46 -65 -55 -81 -42 -189 -7 -228 75 -20 42 -21 58 -21 420
0 241 4 386 11 404 35 95 149 139 238 93z m-1969 -755 c4 -118 9 -178 19 -195
94 -169 305 -207 438 -78 61 59 77 114 81 291 l4 157 134 0 134 0 0 -150 c0
-183 15 -234 88 -303 56 -52 105 -71 182 -71 77 0 126 19 182 71 73 69 88 120
88 303 l0 150 134 0 134 0 4 -157 c4 -176 18 -226 80 -290 104 -107 306 -100
396 15 55 70 57 77 62 257 l5 170 355 0 c420 0 428 -1 521 -94 103 -103 94 61
94 -1711 l0 -1545 -26 -56 c-33 -69 -89 -127 -155 -160 l-49 -24 -1825 0
-1825 0 -49 24 c-66 33 -122 91 -155 160 l-26 56 0 1545 c0 1468 1 1548 18
1597 35 99 131 181 238 202 24 5 195 8 379 7 l335 -1 5 -170z"/>
<path d="M1802 3008 c3 -1054 3 -1063 24 -1108 26 -58 76 -108 134 -134 45
-21 45 -21 1540 -21 1495 0 1495 0 1540 21 58 26 108 76 134 134 21 45 21 54
24 1108 l3 1062 -1701 0 -1701 0 3 -1062z m1283 830 c115 -25 228 -91 342
-201 l72 -70 59 60 c95 96 221 175 334 207 67 20 204 23 273 6 100 -25 193
-76 258 -142 119 -119 168 -247 167 -433 0 -186 -52 -338 -167 -490 -83 -110
-144 -163 -551 -483 -142 -112 -295 -265 -337 -337 -15 -25 -31 -45 -35 -45
-4 0 -20 20 -35 45 -42 72 -195 225 -337 337 -393 308 -468 374 -551 483 -116
153 -167 304 -167 489 0 188 48 315 165 432 71 72 128 104 186 104 32 0 40 3
36 14 -4 11 7 18 46 25 96 20 146 20 242 -1z"/>
</g>
</svg>
